<svg version="1.1" xmlns="http://www.w3.org/2000/svg" viewBox="0 0 858 558" width="858" height="558">
  <!-- svg-source:excalidraw -->
  
  <defs>
    <style>
      @font-face {
        font-family: "Virgil";
        src: url("https://excalidraw.com/FG_Virgil.woff2");
      }
      @font-face {
        font-family: "Cascadia";
        src: url("https://excalidraw.com/Cascadia.woff2");
      }
    </style>
  </defs>
  <rect x="0" y="0" width="858" height="558" fill="#ffffff"></rect><g transform="translate(124 176) rotate(0 124 82.5)"><path d="M-0.5810861394232861 -0.15737530144670084 C71.6759429363045 -1.3053267939078959, 144.93933754307554 1.150553441602382, 248.7799029196911 0.34138520901479646 M-0.3815892982410673 0.05515100544011034 C89.14214645646138 -0.907441026294729, 176.41862926128553 -1.1341137449190468, 247.22189803305818 -0.32416064868723715 M246.97791835479438 -0.9030957203358412 C245.87185866269283 65.47957121068612, 248.03353608283214 127.45672247093172, 248.34289446286857 164.85861712880433 M248.1825157115236 0.2159109553322196 C248.8058999503497 43.00207977602259, 247.77929240711964 87.41561275534333, 248.6798110017553 164.15686572995037 M247.32927164261812 163.8721792192928 C198.30373331409413 166.16114398651467, 144.67721128326377 166.28192262774547, 0.9095628730719216 166.16427165472837 M247.86603494300712 164.6372274974145 C173.77320016608564 164.37556437371003, 100.14790384931999 164.78236748619761, 0.48364819511860574 165.0645193702166 M-0.7270821649581194 164.0168153066188 C1.1384474087972194 111.3263707025908, 1.7191502500791103 57.35992702934891, 0.10200145654380322 -0.28769117407500744 M-0.5036335876211524 164.10309193935245 C-1.4896146035287527 108.74783868296072, -0.01336303115822357 52.297964721918106, -0.13252657558768988 0.8096698066219687" stroke="#000000" stroke-width="1" fill="none"></path></g><g transform="translate(180 243.25) rotate(0 56.5 11.5)"><text x="0" y="19" font-family="Helvetica, Segoe UI Emoji" font-size="20px" fill="#000000" text-anchor="start" style="white-space: pre;" direction="ltr">web browser</text></g><g transform="translate(474 174.5) rotate(0 124 82.5)"><path d="M-1.246342866138769 0.4462558154844411 C60.9464104833322 -1.4701916347083541, 122.674580482778 -1.305666474443409, 248.06089636418508 0.7645171786767371 M-0.4746138222026404 -0.1890675436547164 C57.630907946877464 -0.19772344648806994, 115.72873423069794 -0.3173948744604701, 248.81910476758404 0.16856404939341507 M248.6580599565059 1.2121604960411787 C248.1483933110256 37.98414542293176, 246.641910173418 75.89788259286433, 246.70886200852692 164.47801360301673 M247.17591176833957 0.4369695195928216 C248.99169805473647 42.497783796396114, 248.69747572964988 84.94763711281122, 247.67071671690792 164.16664186213166 M249.3101070532366 165.99638438406302 C150.01174896914958 165.57213712125215, 52.06220511916825 165.6974912371491, 0.5484626551165573 164.72695633133887 M248.14408621388642 165.22044731149043 C197.04020657052766 164.7399045652073, 146.91730697523445 165.67236025728266, -0.5505080872196849 164.9341026185881 M0.2647309321910143 163.82682779245079 C0.4119328248780221 103.31261510262266, -1.7244521987158805 45.46884117927402, -1.7187039237469435 0.44289681129157543 M0.9177718600258231 164.76545530650765 C0.7525681047234685 123.40706963883713, 1.023327240208164 81.37748131155966, -0.7889631846919656 -0.04188826587051153" stroke="#000000" stroke-width="1" fill="none"></path></g><g transform="translate(538 243.25) rotate(0 49 11.5)"><text x="0" y="19" font-family="Helvetica, Segoe UI Emoji" font-size="20px" fill="#000000" text-anchor="start" style="white-space: pre;" direction="ltr">web server</text></g><g><g transform="translate(247.3857223669155 429.00000000000006) rotate(180 177.77664372004426 -43.16618126891555)"><path d="M-0.7843225214630363 1.5675664577633137 C28.894059059859053 -13.441997214779256, 118.42738775200635 -87.41998070919574, 177.9477098325088 -87.89992899559438 C237.46803191301123 -88.37987728199302, 326.1426284771049 -15.749805106269296, 356.3376099615516 -1.3121232606285504" stroke="#000000" stroke-width="1.5" fill="none" stroke-dasharray="12 8"></path></g><g transform="translate(247.3857223669155 429.00000000000006) rotate(180 177.77664372004426 -43.16618126891555)"><path d="M329.209695819389 -6.297360804411512 C335.88934360929017 -8.71107336199619, 344.8791427480949 -2.927856414592771, 356.8434380403878 -0.48492975829180995" stroke="#000000" stroke-width="1.5" fill="none"></path></g><g transform="translate(247.3857223669155 429.00000000000006) rotate(180 177.77664372004426 -43.16618126891555)"><path d="M340.01984420454943 -23.740430897621955 C343.7725769497187 -21.058147216148, 349.56665672526583 -10.118372295122812, 356.8434380403878 -0.48492975829180995" stroke="#000000" stroke-width="1.5" fill="none"></path></g></g><g transform="translate(141 188.5) rotate(0 105.5 70.19153225806451)"><path d="M-0.21216965278704314 -0.5203624833600983 C60.09544769242716 -0.37676294994102644, 117.9433900764826 1.2673677842187767, 209.91968356888745 -0.7590446340545162 M-0.8461771285911791 0.5279617751935355 C76.82319327913817 -1.545488505851877, 152.9457139146759 -1.1912940576069955, 210.26916411938848 -0.2678441984067805 M210.2681351583451 0.15222847647964954 C211.87255013889066 31.836292668011026, 210.71469707196943 59.282443727828536, 212.60030105523765 140.51530189277423 M210.48492565844208 0.8464586576446891 C209.72257511711044 37.13395943416981, 210.73729409670753 73.34685903729405, 211.36205989215523 141.37611874123854 M210.80788618527552 141.70149795120508 C151.9272194377562 142.23015576933085, 97.11425799265236 142.19332209663946, 0.30578174268915503 142.13335786433205 M210.7017753631571 140.18647707280198 C158.21492302208384 139.61996631164945, 105.06485111531306 138.47195476803185, -0.49619617516541403 140.8712787064267 M-0.6146073658019304 140.67090989114536 C-2.3977084677540623 93.32117262070494, 0.37152052709228167 42.745851320113175, 1.9558359663933516 -1.8420662265270948 M0.8689095685258508 139.51684682747168 C0.8435017395007889 86.94093787908034, 0.8941608893859665 32.81453664400688, -0.9059013118967414 -0.7622265676036477" stroke="#000000" stroke-width="1" fill="none"></path></g><g transform="translate(488.5 186.8084677419355) rotate(0 105.5 70.19153225806451)"><path d="M-1.7314382170383438 1.1419853421041712 C47.10123849941615 1.0491776136216204, 91.4794972602081 1.3153629588067572, 212.39361111401163 -1.5954323449478403 M0.7738791388084761 0.867005423953677 C61.103731828677496 -0.15577274094429996, 123.20645388606285 -0.047656406126055983, 211.19051557604496 0.8805152658839948 M210.2175983209163 0.6885489504784346 C213.20505771649337 33.697904254454414, 210.91590551150298 68.60828914522239, 211.96726817078888 139.38493666635645 M210.53154526557773 -0.7784852972254157 C211.07095720688005 38.658121280077346, 210.83908992329737 75.88928447511692, 211.3149778386578 140.67831436661822 M210.64104514662486 139.24689564439453 C148.58700056068136 139.5509499653917, 85.3783353226886 140.1615962499964, -0.7696606378006443 140.3703052412262 M210.57939185031108 139.5945684820736 C133.44358989990704 141.2799020983906, 53.84008253943146 141.35480864667778, 0.317140131296026 140.27127350659822 M0.5181474704295397 139.87960962043894 C2.230996616962253 107.86291580209169, -0.6734090365144619 77.24468809397395, 1.2775257248431444 -0.5557360965758562 M-0.4712388077750802 141.2145744052325 C-1.1590266369217481 112.55215351439207, -0.8566741786831464 82.88967254206973, 0.5183686157688498 0.1714517781510949" stroke="#000000" stroke-width="1" fill="none"></path></g><g><g transform="translate(234.69492185101035 174.99999999999994) rotate(0 178.8565256153778 -43.80959589816631)"><path d="M1.6375485334545372 2.1052583839744328 C31.33625150778963 -12.903676491354904, 117.8016876087784 -88.85826113342306, 176.87467996941947 -89.72445018030703 C235.94767233006056 -90.590639227191, 325.8416039336109 -18.238877437807098, 356.0755026973011 -3.0918758973294187" stroke="#000000" stroke-width="1.5" fill="none" stroke-dasharray="12 8"></path></g><g transform="translate(234.69492185101035 174.99999999999994) rotate(0 178.8565256153778 -43.80959589816631)"><path d="M329.7401436496274 -9.725900327812095 C331.70594822453484 -11.721139046891595, 339.5002141895917 -6.995051820456939, 360.0547550394358 -0.6020687125438142" stroke="#000000" stroke-width="1.5" fill="none"></path></g><g transform="translate(234.69492185101035 174.99999999999994) rotate(0 178.8565256153778 -43.80959589816631)"><path d="M340.61906873838154 -27.12615869655807 C339.8740131594957 -24.592839401383905, 344.9165085929631 -15.465442502300238, 360.0547550394358 -0.6020687125438142" stroke="#000000" stroke-width="1.5" fill="none"></path></g></g><g transform="translate(10 10) rotate(0 419 269)"><path d="M0 0 C250.22879564817998 0, 500.45759129635996 0, 838 0 M0 0 C238.70802846197043 0, 477.41605692394086 0, 838 0 M838 0 C838 186.115245356597, 838 372.230490713194, 838 538 M838 0 C838 126.00843730624766, 838 252.01687461249531, 838 538 M838 538 C534.4106317395344 538, 230.82126347906888 538, 0 538 M838 538 C579.7112300252542 538, 321.42246005050833 538, 0 538 M0 538 C0 336.56313712354745, 0 135.12627424709495, 0 0 M0 538 C0 351.4123465115204, 0 164.82469302304082, 0 0" stroke="#000000" stroke-width="1" fill="none"></path></g><g transform="translate(774 520.5) rotate(0 34.5 11.5)"><text x="0" y="19" font-family="Helvetica, Segoe UI Emoji" font-size="20px" fill="#000000" text-anchor="start" style="white-space: pre;" direction="ltr">dhrv.pw</text></g></svg>